<svg width="63" height="45" viewBox="0 0 63 45" fill="none" xmlns="http://www.w3.org/2000/svg">
<path d="M42.6 38.9999L22 39.3999M3.1 39.3999C2.2 39.1999 1.4 38.8999 1.3 38.3999C1.2 37.3999 1 34.5999 1 33.2999C1 32.7999 1.1 32.1999 1.4 31.7999C2.5 29.7999 6.2 24.9999 16.3 25.3999L26.6 18.4999C27.1 18.1999 27.7 17.9999 28.2 17.9999L47.8 17.8999C48.1 17.8999 48.4 17.8999 48.7 17.9999C50.9 18.5999 60.4 21.9999 59.1 30.5999L60.2 31.1999C60.7 31.3999 61.1 31.8999 61.2 32.3999C61.6 33.7999 61.5 35.2999 61 36.6999" stroke="black" stroke-width="2" stroke-linecap="round" stroke-linejoin="round"/>
<path d="M19.9 27.9002L50.1 27.7002V23.2002" stroke="black" stroke-width="2" stroke-linecap="round" stroke-linejoin="round"/>
<path d="M12.3 43.3999C15.0614 43.3999 17.3 41.1613 17.3 38.3999C17.3 35.6385 15.0614 33.3999 12.3 33.3999C9.53856 33.3999 7.29999 35.6385 7.29999 38.3999C7.29999 41.1613 9.53856 43.3999 12.3 43.3999Z" stroke="black" stroke-width="2" stroke-linecap="round" stroke-linejoin="round"/>
<path d="M52.1 43.3999C54.8614 43.3999 57.1 41.1613 57.1 38.3999C57.1 35.6385 54.8614 33.3999 52.1 33.3999C49.3386 33.3999 47.1 35.6385 47.1 38.3999C47.1 41.1613 49.3386 43.3999 52.1 43.3999Z" stroke="black" stroke-width="2" stroke-linecap="round" stroke-linejoin="round"/>
<path d="M7.29999 30.9002L5.49999 33.1002L1.79999 33.0002M13.267 15.8632C14.953 11.1632 18.876 7.36117 24.082 6.05217C26.2989 5.49216 28.6124 5.43058 30.8559 5.87186C33.0995 6.31313 35.2173 7.24629 37.057 8.60417" stroke="black" stroke-width="2" stroke-linecap="round" stroke-linejoin="round"/>
<path d="M9.18201 14.854C11.138 8.84799 16.044 3.94899 22.622 2.29399C28.559 0.800988 34.548 2.28099 39.015 5.79399" stroke="black" stroke-width="2" stroke-linecap="round" stroke-linejoin="round"/>
<path d="M17.217 16.734C17.898 15.064 18.9627 13.5779 20.325 12.396C21.6872 11.2141 23.3087 10.3696 25.058 9.93101C26.7029 9.51554 28.4195 9.46991 30.0841 9.79741C31.7488 10.1249 33.3201 10.8174 34.685 11.825" stroke="black" stroke-width="2" stroke-linecap="round" stroke-linejoin="round"/>
</svg>
